<svg width="39" height="41" viewBox="0 0 39 41" fill="none" xmlns="http://www.w3.org/2000/svg">
<path fill-rule="evenodd" clip-rule="evenodd" d="M29.6715 0.709872C29.328 1.10037 29.0465 1.67637 29.0465 1.99037C29.0465 2.30387 28.3715 3.19137 27.5465 3.96187C26.7215 4.73237 26.0465 5.67337 26.0465 6.05187C26.0465 6.43087 25.5965 7.06537 25.0465 7.46187C24.4965 7.85837 24.0465 8.53337 24.0465 8.96187C24.0465 9.39037 23.5965 10.0654 23.0465 10.4619C22.4965 10.8584 22.0465 11.4929 22.0465 11.8719C22.0465 12.2504 21.3715 13.1914 20.5465 13.9619C19.7215 14.7324 19.0465 15.6734 19.0465 16.0519C19.0465 16.4309 18.5965 17.0654 18.0465 17.4619C17.4965 17.8584 17.0465 18.5334 17.0465 18.9619C17.0465 19.3904 16.5965 20.0654 16.0465 20.4619C15.4965 20.8584 15.0465 21.5829 15.0465 22.0724C15.0465 22.6284 14.672 22.9619 14.0465 22.9619C13.113 22.9619 13.0465 22.6284 13.0465 17.9619V12.9619H7.54654H2.04654V20.4619V27.9619H3.93604C5.25204 27.9619 6.04454 28.2654 6.54654 28.9619C7.19054 29.8554 7.84104 29.9619 12.657 29.9619C17.713 29.9619 18.0465 29.8999 18.0465 28.9619C18.0465 28.1839 18.38 27.9619 19.5465 27.9619C20.713 27.9619 21.0465 27.7399 21.0465 26.9619C21.0465 26.4119 21.2715 25.9619 21.5465 25.9619C21.8215 25.9619 22.0465 25.5119 22.0465 24.9619C22.0465 24.4119 22.2715 23.9619 22.5465 23.9619C22.8215 23.9619 23.0465 23.5119 23.0465 22.9619C23.0465 22.4119 23.2715 21.9619 23.5465 21.9619C23.8215 21.9619 24.0465 21.5119 24.0465 20.9619C24.0465 20.4119 24.2715 19.9619 24.5465 19.9619C24.8215 19.9619 25.0465 19.5119 25.0465 18.9619C25.0465 18.4119 25.2715 17.9619 25.5465 17.9619C25.8215 17.9619 26.0465 17.5614 26.0465 17.0724C26.0465 16.5829 26.4965 15.8584 27.0465 15.4619C27.5965 15.0654 28.0465 14.3409 28.0465 13.8514C28.0465 13.3624 28.2715 12.9619 28.5465 12.9619C28.8215 12.9619 29.0465 12.5614 29.0465 12.0724C29.0465 11.5829 29.4965 10.8584 30.0465 10.4619C30.6335 10.0384 31.0465 9.16737 31.0465 8.35137C31.0465 7.58737 31.2715 6.96187 31.5465 6.96187C31.832 6.96187 32.0465 8.46187 32.0465 10.4619C32.0465 13.6284 31.9515 13.9619 31.0465 13.9619C30.1575 13.9619 30.0465 14.2954 30.0465 16.9619C30.0465 18.6284 30.2685 19.9619 30.5465 19.9619C30.8215 19.9619 31.0465 20.6369 31.0465 21.4619C31.0465 22.2869 30.8215 22.9619 30.5465 22.9619C30.2715 22.9619 30.0465 23.5464 30.0465 24.2614C30.0465 25.0729 29.4575 26.1109 28.478 27.0259C27.615 27.8319 27.046 28.6279 27.213 28.7954C27.3805 28.9624 28.1765 28.3934 28.9825 27.5304C30.8195 25.5639 32.255 25.5444 34.0465 27.4619C35.411 28.9229 37.0465 29.4679 37.0465 28.4619C37.0465 28.1869 36.693 27.9619 36.261 27.9619C34.854 27.9619 34.0465 26.6069 34.0465 24.2474C34.0465 22.9904 33.8215 21.9619 33.5465 21.9619C33.2715 21.9619 33.0465 21.0619 33.0465 19.9619C33.0465 18.8619 33.2715 17.9619 33.5465 17.9619C33.8215 17.9619 34.0465 17.0619 34.0465 15.9619C34.0465 14.8619 33.8215 13.9619 33.5465 13.9619C32.771 13.9619 32.889 3.09787 33.667 2.83837C34.493 2.56287 32.9275 0.961872 31.832 0.961872C31.4 0.961872 31.0465 0.736872 31.0465 0.461872C31.0465 -0.242128 30.408 -0.127128 29.6715 0.709872ZM32.0465 3.96187C32.0465 4.62837 31.713 4.96187 31.0465 4.96187C30.38 4.96187 30.0465 4.62837 30.0465 3.96187C30.0465 3.29537 30.38 2.96187 31.0465 2.96187C31.713 2.96187 32.0465 3.29537 32.0465 3.96187ZM29.0465 5.96187C29.0465 6.51187 28.8215 6.96187 28.5465 6.96187C28.2715 6.96187 28.0465 6.51187 28.0465 5.96187C28.0465 5.41187 28.2715 4.96187 28.5465 4.96187C28.8215 4.96187 29.0465 5.41187 29.0465 5.96187ZM28.0465 10.4619C28.0465 11.2869 27.8215 11.9619 27.5465 11.9619C27.2715 11.9619 27.0465 11.2869 27.0465 10.4619C27.0465 9.63687 27.2715 8.96187 27.5465 8.96187C27.8215 8.96187 28.0465 9.63687 28.0465 10.4619ZM26.0465 11.4619C26.0465 12.6284 25.8245 12.9619 25.0465 12.9619C23.9165 12.9619 23.721 11.7894 24.6715 10.7099C25.642 9.60737 26.0465 9.82887 26.0465 11.4619ZM24.332 14.6764C25.0305 15.3744 25.328 16.9619 24.761 16.9619C24.174 16.9619 23.0465 15.5054 23.0465 14.7474C23.0465 13.7729 23.409 13.7529 24.332 14.6764ZM22.0465 15.9619C22.0465 16.5119 22.2715 16.9619 22.5465 16.9619C22.8215 16.9619 23.0465 17.4119 23.0465 17.9619C23.0465 19.2624 22.7625 19.2229 21.2525 17.7134C20.2125 16.6734 20.112 16.3429 20.6505 15.7324C21.5535 14.7084 22.0465 14.7894 22.0465 15.9619ZM10.0465 18.4619V20.9619H7.54654H5.04654V18.4619V15.9619H7.54654H10.0465V18.4619ZM21.332 19.6764C22.144 20.4879 22.3055 22.9619 21.5465 22.9619C21.2715 22.9619 21.0465 22.5119 21.0465 21.9619C21.0465 21.4119 20.8215 20.9619 20.5465 20.9619C20.2715 20.9619 20.0465 20.5119 20.0465 19.9619C20.0465 18.7774 20.3635 18.7074 21.332 19.6764ZM18.332 20.6764C18.725 21.0689 19.0465 21.7439 19.0465 22.1764C19.0465 22.6084 19.2715 22.9619 19.5465 22.9619C19.8215 22.9619 20.0465 23.1869 20.0465 23.4619C20.0465 23.7369 19.5965 23.9619 19.0465 23.9619C18.4965 23.9619 18.0465 23.7369 18.0465 23.4619C18.0465 23.1869 17.5965 22.9619 17.0465 22.9619C16.4965 22.9619 16.0465 22.7369 16.0465 22.4619C16.0465 22.1869 16.2715 21.9619 16.5465 21.9619C16.8215 21.9619 17.0465 21.5119 17.0465 20.9619C17.0465 19.7774 17.3635 19.7074 18.332 20.6764ZM33.0465 23.9619C33.0465 25.1464 32.7295 25.2164 31.761 24.2474C30.792 23.2789 30.862 22.9619 32.0465 22.9619C32.713 22.9619 33.0465 23.2954 33.0465 23.9619ZM26.0465 30.9619C26.0465 31.5119 26.2715 31.9619 26.5465 31.9619C26.8215 31.9619 27.0465 32.4119 27.0465 32.9619C27.0465 33.5119 26.8215 33.9619 26.5465 33.9619C26.2715 33.9619 26.0465 34.4119 26.0465 34.9619C26.0465 35.9064 26.38 35.9619 32.0465 35.9619C37.713 35.9619 38.0465 35.9064 38.0465 34.9619C38.0465 34.2954 37.713 33.9619 37.0465 33.9619C36.38 33.9619 36.0465 33.6284 36.0465 32.9619C36.0465 32.2954 36.38 31.9619 37.0465 31.9619C37.713 31.9619 38.0465 31.6284 38.0465 30.9619C38.0465 30.0174 37.713 29.9619 32.0465 29.9619C26.38 29.9619 26.0465 30.0174 26.0465 30.9619ZM1.17154 32.2244C-0.171462 33.6589 -0.428962 38.0579 0.761038 39.2474C1.80854 40.2954 21.2845 40.2954 22.332 39.2474C23.3055 38.2744 23.3055 32.6494 22.332 31.6764C21.76 31.1044 19.6935 30.9679 11.957 30.9924C2.42004 31.0229 2.28204 31.0384 1.17154 32.2244ZM20.0465 35.4619V36.9619H11.5465H3.04654V35.4619V33.9619H11.5465H20.0465V35.4619Z" fill="black"/>
</svg>
